<?xml version="1.0" encoding="utf-8"?>
<!DOCTYPE svg PUBLIC "-//W3C//DTD SVG 1.1//EN" "http://www.w3.org/Graphics/SVG/1.1/DTD/svg11.dtd">
<svg version="1.1" id="Слой_1" xmlns="http://www.w3.org/2000/svg" xmlns:xlink="http://www.w3.org/1999/xlink" x="0px" y="0px"
	 width="134px" height="56.54px" viewBox="0 0 134 56.54" enable-background="new 0 0 134 56.54" xml:space="preserve">
<g>
	<path d="M50.083,8.64l0.009-6.627l3.312,0.004l-0.008,6.627L50.083,8.64z M50.083,8.64L28.313,8.613l0.008-6.627l21.771,0.027
		L50.083,8.64z M28.32,1.986l-0.008,6.627L25.52,8.688l-2.594,0.223L20.53,9.269l-2.195,0.479l-1.997,0.587l-1.798,0.682l-1.6,0.761
		l-1.404,0.825l-1.212,0.874l-1.023,0.908l-0.843,0.928l-0.669,0.934l-0.508,0.931l-0.356,0.92l-0.217,0.908l-0.086,0.897
		l0.043,0.894l0.171,0.895l0.307,0.902l0.454,0.911l0.614,0.915l0.786,0.912l0.971,0.896l1.163,0.867l1.363,0.822l1.568,0.761
		l1.776,0.686l1.987,0.593l2.2,0.487l2.411,0.367l2.625,0.232l2.839,0.086l-0.017,6.627l-3.209-0.097l-3.021-0.268l-2.836-0.432
		l-2.648-0.587l-2.463-0.735l-2.275-0.877l-2.087-1.014l-1.897-1.144l-1.703-1.269l-1.502-1.388l-1.293-1.5l-1.074-1.602
		l-0.842-1.691l-0.6-1.762L0.087,21.58L0,19.746l0.174-1.829l0.428-1.796l0.674-1.741l0.908-1.666l1.129-1.576l1.34-1.476
		l1.54-1.366l1.733-1.251l1.921-1.128l2.104-1l2.285-0.866L16.7,3.325l2.642-0.577l2.817-0.421l2.993-0.257L28.32,1.986z
		 M27.901,31.128l37.849,0.094l-0.017,6.627l-37.849-0.094L27.901,31.128z M65.733,37.85l0.017-6.627l1.459-0.045l1.331-0.138
		l1.206-0.218l1.085-0.288l0.967-0.349l0.856-0.398l0.749-0.439l0.651-0.472l0.558-0.499l0.474-0.519l0.394-0.537l0.32-0.55
		l0.251-0.562l0.185-0.571l0.121-0.576l0.058-0.58l-0.003-0.58l-0.064-0.575l-0.125-0.568l-0.186-0.556l-0.246-0.54l-0.309-0.522
		l-0.37-0.499l-0.436-0.473l-0.504-0.442l-0.575-0.409l-0.651-0.369l-0.733-0.323l-0.819-0.269l-0.91-0.206l-1.005-0.133
		l-1.104-0.051l0.031-6.628l1.654,0.076l1.584,0.211l1.507,0.34l1.423,0.466l1.333,0.586l1.236,0.699l1.134,0.804l1.024,0.9
		l0.908,0.985l0.788,1.061l0.665,1.125l0.537,1.178l0.408,1.22l0.275,1.251l0.142,1.271l0.008,1.281l-0.129,1.281l-0.267,1.268
		l-0.403,1.245l-0.54,1.209l-0.677,1.161l-0.81,1.102l-0.938,1.031l-1.064,0.95l-1.185,0.859l-1.299,0.761l-1.409,0.655
		l-1.515,0.545l-1.617,0.43l-1.718,0.311l-1.816,0.187L65.733,37.85z M68.404,11.34c1.828,0.008,3.305,1.499,3.296,3.329
		s-1.498,3.307-3.327,3.299L68.404,11.34z M68.373,17.968l-41.407-0.191l0.03-6.627l41.408,0.191L68.373,17.968z M26.996,11.149
		l-0.03,6.627l-3.312-0.015l0.03-6.627L26.996,11.149z"/>
	<rect x="56.834" y="21.235" transform="matrix(1 0.0069 -0.0069 1 0.1713 -0.4713)" width="22.889" height="6.628"/>
	<polygon fill="#0393DB" points="84.334,37.923 84.426,1.989 91.756,2.001 91.708,21.014 100.284,11.902 109.28,11.917 
		99.795,21.445 109.863,37.965 102.046,37.952 95.047,26.23 91.687,29.604 91.665,37.935 	"/>
	<path fill-rule="evenodd" clip-rule="evenodd" d="M84.334,37.923l0.092-35.934l7.33,0.013l-0.048,19.012l8.576-9.111l8.996,0.015
		l-9.485,9.528l10.068,16.52l-7.817-0.013L95.047,26.23l-3.36,3.374l-0.021,8.331L84.334,37.923z M83.646,37.923l0.092-35.934
		L83.739,1.3l0.687,0.001l7.33,0.012l0.689,0.001l-0.002,0.687L92.4,19.274l7.383-7.844l0.203-0.216l0.298,0l8.996,0.015
		l1.652,0.002l-1.164,1.17l-9.104,9.146l9.787,16.059l0.639,1.048l-1.227-0.002l-7.817-0.013l-0.392,0l-0.199-0.333L94.91,27.343
		l-2.537,2.547l-0.021,8.045l-0.002,0.689l-0.686-0.001l-7.331-0.012l-0.688-0.001L83.646,37.923z"/>
	<rect x="38.146" y="14.53" transform="matrix(0.9999 0.0107 -0.0107 0.9999 0.2366 -0.4419)" width="6.623" height="14.772"/>
	<path fill="#0393DB" d="M50.104,7.995l0.007-5.339l2.668,0.003l-0.006,5.339L50.104,7.995z M50.104,7.995l-21.77-0.027l0.006-5.339
		L50.11,2.656L50.104,7.995z M28.34,2.629l-0.006,5.339l-2.83,0.076L22.871,8.27l-2.437,0.364l-2.238,0.489l-2.042,0.6l-1.846,0.7
		l-1.649,0.784l-1.454,0.854l-1.262,0.911l-1.074,0.953l-0.891,0.981l-0.715,0.997l-0.546,1.002l-0.388,1l-0.237,0.994l-0.094,0.988
		l0.047,0.984l0.188,0.984l0.336,0.986l0.491,0.986l0.658,0.982l0.836,0.968l1.022,0.945l1.216,0.906l1.415,0.854l1.619,0.785
		l1.825,0.704l2.033,0.607l2.243,0.497l2.453,0.374l2.663,0.236l2.875,0.086l-0.013,5.339l-3.173-0.096l-2.984-0.264l-2.794-0.425
		l-2.605-0.577l-2.416-0.722l-2.228-0.859l-2.036-0.989l-1.846-1.113l-1.65-1.23l-1.45-1.34L3.48,28.054l-1.028-1.536l-0.806-1.614
		l-0.57-1.679l-0.329-1.722L0.664,19.76l0.165-1.738l0.408-1.71l0.643-1.661l0.869-1.594l1.084-1.514l1.292-1.422l1.489-1.322
		l1.683-1.214l1.871-1.099l2.055-0.978l2.238-0.848l2.418-0.712l2.598-0.567l2.777-0.415l2.955-0.253L28.34,2.629z M27.92,31.772
		l37.848,0.094l-0.013,5.339l-37.848-0.094L27.92,31.772z M65.755,37.205l0.013-5.339l1.504-0.047l1.378-0.142l1.256-0.227
		l1.137-0.302l1.021-0.368l0.91-0.423l0.803-0.471l0.702-0.509l0.607-0.543l0.519-0.569l0.435-0.592l0.354-0.61l0.279-0.625
		l0.206-0.636l0.135-0.644l0.065-0.648l-0.004-0.647l-0.072-0.643l-0.14-0.634l-0.207-0.621l-0.274-0.602l-0.343-0.581l-0.411-0.554
		l-0.481-0.522l-0.555-0.487l-0.629-0.447l-0.709-0.401l-0.791-0.348l-0.878-0.289l-0.969-0.219l-1.061-0.141l-1.158-0.053
		l0.024-5.339l1.601,0.073l1.528,0.203l1.448,0.328l1.365,0.447l1.274,0.561l1.18,0.667l1.079,0.765l0.975,0.856l0.861,0.936
		l0.748,1.006l0.63,1.066l0.509,1.116l0.387,1.155l0.261,1.185l0.134,1.204l0.008,1.213l-0.122,1.212l-0.253,1.201l-0.382,1.179
		l-0.513,1.146l-0.641,1.102l-0.77,1.047l-0.894,0.981l-1.015,0.906l-1.133,0.822l-1.246,0.729l-1.354,0.63l-1.462,0.526
		l-1.566,0.417l-1.667,0.301l-1.769,0.182L65.755,37.205z M68.421,11.984c1.474,0.007,2.662,1.207,2.655,2.682
		s-1.207,2.664-2.68,2.657L68.421,11.984z M68.396,17.323l-41.407-0.191l0.024-5.339l41.407,0.191L68.396,17.323z M27.014,11.793
		l-0.024,5.339l-2.668-0.013l0.024-5.339L27.014,11.793z"/>
	<rect x="57.443" y="21.879" transform="matrix(1 0.0071 -0.0071 1 0.1753 -0.4845)" fill="#0393DB" width="22.3" height="5.339"/>
	
		<rect x="38.822" y="13.712" transform="matrix(0.9999 0.0105 -0.0105 0.9999 0.2254 -0.4355)" fill="#0393DB" width="5.335" height="14.98"/>
	<path fill="#0393DB" d="M88.175,48.667h8.479V45.65h-8.479V48.667z M96.486,52.25l-8.2,0v3.017h-3.978V44.053l1.228-2.23H98.92
		l1.229,2.23v11.215h-3.662V52.25z"/>
	<path fill-rule="evenodd" clip-rule="evenodd" d="M88.864,47.977h7.099v-1.636h-7.099V47.977z M88.175,48.667h8.479V45.65h-8.479
		V48.667z M96.486,52.25l-8.2,0v3.017h-3.978V44.053l1.228-2.23H98.92l1.229,2.23v11.215h-3.662V52.25z M95.797,52.938h-6.82v2.33
		v0.69h-0.69h-3.978h-0.69v-0.69V44.053v-0.175l0.087-0.156l1.228-2.23l0.197-0.358h0.406H98.92h0.406l0.197,0.358l1.229,2.23
		l0.086,0.156v0.175v11.215v0.688h-0.689l-3.662,0h-0.689v-0.687V52.938z"/>
	<polygon fill="#FF0000" points="59.045,45.622 64.549,45.622 64.549,42.025 49.473,42.025 49.473,45.654 54.857,45.654 
		54.857,55.31 59.028,55.31 	"/>
	<path fill-rule="evenodd" clip-rule="evenodd" fill="#960000" d="M64.549,46.313H59.73l-0.016,8.998L59.714,56h-0.686h-4.171h-0.69
		v-0.69v-8.965h-4.694h-0.69v-0.69v-3.629v-0.69h0.69h15.076h0.689v0.69v3.597v0.69H64.549z M59.045,45.622h5.504v-3.597H49.473
		v3.629h5.385v9.656h4.171L59.045,45.622z"/>
	<path fill="#FF0000" d="M70.001,48.667h8.872v-2.98h-8.872V48.667z M80.637,52.329H69.95v2.981h-3.221V42.025h13.907l1.168,2.203
		v5.865L80.637,52.329z"/>
	<path fill-rule="evenodd" clip-rule="evenodd" fill="#960000" d="M70.691,47.977h7.492v-1.6h-7.492V47.977z M70.001,48.667h8.872
		v-2.98h-8.872V48.667z M80.637,52.329H69.95v2.981h-3.221V42.025h13.907l1.168,2.203v5.865L80.637,52.329z M80.637,53.019H70.64
		v2.291V56H69.95h-3.221h-0.69v-0.69V42.025v-0.69h0.69h13.907h0.414l0.194,0.367l1.169,2.204l0.081,0.152v0.171v5.865v0.164
		l-0.081,0.155l-1.169,2.236l-0.194,0.372H80.637z"/>
	<polygon fill="#FF0000" points="102.865,44.125 104.034,41.921 116.383,41.921 116.383,45.583 106.596,45.583 106.596,51.544 
		116.383,51.544 116.383,55.206 104.034,55.206 102.865,52.97 	"/>
	<path fill-rule="evenodd" clip-rule="evenodd" fill="#960000" d="M102.865,44.125l1.169-2.203h12.349v3.662h-9.787v5.961h9.787
		v3.662h-12.349l-1.169-2.236V44.125z M102.256,43.801l1.169-2.204l0.194-0.367h0.415h12.349h0.689v0.69v3.662v0.69h-0.689h-9.098
		v4.581h9.098h0.689v0.69v3.662v0.69h-0.689h-12.349h-0.415l-0.194-0.372l-1.169-2.236l-0.08-0.154V52.97v-8.846v-0.171
		L102.256,43.801z"/>
	<polygon fill="#FF0000" points="127.807,45.54 133.311,45.54 133.311,41.943 118.234,41.943 118.234,45.572 123.619,45.572 
		123.619,55.228 127.79,55.228 	"/>
	<path fill-rule="evenodd" clip-rule="evenodd" fill="#960000" d="M133.311,46.23h-4.817l-0.016,8.998l-0.001,0.69h-0.687h-4.171
		h-0.69v-0.69v-8.965h-4.694h-0.689v-0.69v-3.629v-0.69h0.689h15.076H134v0.69v3.597v0.69H133.311z M127.807,45.54h5.504v-3.597
		h-15.076v3.629h5.385v9.656h4.171L127.807,45.54z"/>
	<path fill="#0387C8" d="M118.915,8.252h1.784c0.854,0,1.436-0.126,1.746-0.38c0.31-0.252,0.467-0.589,0.467-1.003
		c0-0.268-0.076-0.509-0.226-0.72c-0.149-0.214-0.356-0.371-0.62-0.475c-0.269-0.104-0.759-0.157-1.479-0.157h-1.673V8.252z
		 M117.445,13.377V4.275h3.131c1.072,0,1.846,0.084,2.324,0.253c0.482,0.168,0.861,0.459,1.148,0.881
		c0.283,0.417,0.426,0.862,0.426,1.333c0,0.663-0.238,1.245-0.717,1.736c-0.475,0.494-1.106,0.77-1.895,0.831
		c0.321,0.134,0.582,0.295,0.773,0.483c0.367,0.356,0.815,0.958,1.348,1.804l1.11,1.781h-1.784l-0.813-1.433
		c-0.635-1.13-1.152-1.838-1.542-2.122c-0.269-0.207-0.659-0.311-1.176-0.307h-0.865v3.862H117.445z M121.162,1.632
		c-1.19,0-2.351,0.307-3.477,0.916c-1.125,0.609-2.006,1.482-2.641,2.616c-0.636,1.134-0.953,2.314-0.953,3.54
		c0,1.222,0.313,2.391,0.938,3.509c0.624,1.119,1.497,1.992,2.619,2.617c1.121,0.625,2.293,0.938,3.514,0.938
		c1.218,0,2.39-0.313,3.511-0.938c1.122-0.625,1.995-1.498,2.615-2.617c0.62-1.118,0.931-2.287,0.931-3.509
		c0-1.226-0.318-2.405-0.95-3.54c-0.632-1.134-1.512-2.007-2.642-2.616C123.498,1.939,122.342,1.632,121.162,1.632z M121.162,0.23
		c1.421,0,2.807,0.364,4.162,1.096c1.352,0.728,2.408,1.773,3.162,3.13c0.754,1.359,1.133,2.777,1.133,4.248
		c0,1.459-0.371,2.866-1.117,4.21c-0.743,1.349-1.784,2.394-3.128,3.138c-1.344,0.747-2.749,1.118-4.212,1.118
		c-1.466,0-2.871-0.372-4.215-1.118c-1.344-0.744-2.389-1.789-3.136-3.138c-0.746-1.344-1.121-2.75-1.121-4.21
		c0-1.471,0.379-2.888,1.137-4.248c0.762-1.356,1.818-2.402,3.17-3.13C118.353,0.594,119.738,0.23,121.162,0.23z"/>
	<path fill-rule="evenodd" clip-rule="evenodd" d="M119.145,8.022h1.555c0.411,0,0.754-0.03,1.028-0.09
		c0.256-0.056,0.446-0.135,0.573-0.238c0.127-0.104,0.223-0.224,0.285-0.36c0.064-0.137,0.096-0.292,0.096-0.465
		c0-0.111-0.016-0.215-0.046-0.312c-0.03-0.098-0.076-0.189-0.136-0.274l-0.002-0.002v0c-0.062-0.088-0.135-0.165-0.218-0.229
		c-0.086-0.065-0.186-0.12-0.298-0.164l-0.009-0.004c-0.115-0.042-0.283-0.076-0.505-0.1c-0.234-0.024-0.527-0.037-0.881-0.037
		h-1.443V8.022z M117.215,13.377V4.275c0-0.127,0.104-0.23,0.23-0.23h3.131c0.541,0,1.011,0.022,1.409,0.065
		c0.405,0.044,0.736,0.111,0.991,0.201l0.01,0.004c0.261,0.092,0.494,0.218,0.701,0.376c0.211,0.162,0.395,0.357,0.551,0.588
		l0.01,0.014c0.149,0.223,0.262,0.454,0.338,0.692c0.079,0.247,0.118,0.499,0.118,0.756c0,0.361-0.065,0.703-0.197,1.022
		c-0.13,0.316-0.325,0.608-0.583,0.873l0,0c-0.259,0.269-0.561,0.479-0.904,0.629c-0.146,0.064-0.301,0.118-0.463,0.16
		c0.088,0.063,0.168,0.13,0.239,0.201c0.194,0.188,0.406,0.437,0.637,0.746c0.226,0.302,0.474,0.669,0.745,1.101l0.001,0.001l0,0
		l1.11,1.781c0.067,0.108,0.034,0.25-0.073,0.316c-0.038,0.023-0.08,0.035-0.121,0.035v0h-1.784c-0.093,0-0.172-0.054-0.209-0.132
		l-0.803-1.417v-0.001l0,0c-0.313-0.556-0.596-1.007-0.848-1.353c-0.244-0.335-0.454-0.567-0.63-0.695l-0.015-0.011
		c-0.107-0.082-0.243-0.144-0.404-0.186c-0.177-0.046-0.384-0.069-0.621-0.067h-0.001v0.001h-0.636v3.632
		c0,0.127-0.103,0.23-0.229,0.23h-1.47C117.318,13.607,117.215,13.504,117.215,13.377z M121.162,1.863
		c-0.576,0-1.144,0.074-1.702,0.221c-0.563,0.148-1.117,0.371-1.665,0.667c-0.543,0.293-1.026,0.651-1.451,1.071
		c-0.425,0.421-0.791,0.906-1.099,1.455c-0.309,0.551-0.54,1.112-0.693,1.682s-0.23,1.152-0.23,1.745
		c0,0.592,0.076,1.17,0.227,1.734c0.152,0.567,0.38,1.122,0.682,1.664c0.302,0.541,0.663,1.021,1.085,1.443
		c0.422,0.421,0.903,0.783,1.445,1.084c0.543,0.302,1.099,0.53,1.667,0.682c0.566,0.151,1.145,0.227,1.735,0.227
		c0.589,0,1.166-0.076,1.731-0.226c0.568-0.152,1.125-0.38,1.668-0.683c0.541-0.301,1.022-0.663,1.444-1.085
		c0.422-0.422,0.783-0.903,1.082-1.442c0.3-0.542,0.525-1.096,0.676-1.663c0.15-0.564,0.225-1.143,0.225-1.735
		s-0.076-1.174-0.229-1.743c-0.154-0.573-0.385-1.135-0.691-1.685c-0.305-0.547-0.671-1.033-1.096-1.454
		c-0.425-0.42-0.909-0.777-1.454-1.071c-0.55-0.296-1.104-0.519-1.665-0.667C122.297,1.937,121.733,1.863,121.162,1.863z
		 M118.915,8.252h1.784c0.854,0,1.436-0.126,1.746-0.38c0.31-0.252,0.467-0.589,0.467-1.003c0-0.268-0.076-0.509-0.226-0.72
		c-0.149-0.214-0.356-0.371-0.62-0.475c-0.269-0.104-0.759-0.157-1.479-0.157h-1.673V8.252z M117.445,13.377V4.275h3.131
		c1.072,0,1.846,0.084,2.324,0.253c0.482,0.168,0.861,0.459,1.148,0.881c0.283,0.417,0.426,0.862,0.426,1.333
		c0,0.663-0.238,1.245-0.717,1.736c-0.475,0.494-1.106,0.77-1.895,0.831c0.321,0.134,0.582,0.295,0.773,0.483
		c0.367,0.356,0.815,0.958,1.348,1.804l1.11,1.781h-1.784l-0.813-1.433c-0.635-1.13-1.152-1.838-1.542-2.122
		c-0.269-0.207-0.659-0.311-1.176-0.307h-0.865v3.862H117.445z M121.162,1.632c-1.19,0-2.351,0.307-3.477,0.916
		c-1.125,0.609-2.006,1.482-2.641,2.616c-0.636,1.134-0.953,2.314-0.953,3.54c0,1.222,0.313,2.391,0.938,3.509
		c0.624,1.119,1.497,1.992,2.619,2.617c1.121,0.625,2.293,0.938,3.514,0.938c1.218,0,2.39-0.313,3.511-0.938
		c1.122-0.625,1.995-1.498,2.615-2.617c0.62-1.118,0.931-2.287,0.931-3.509c0-1.226-0.318-2.405-0.95-3.54
		c-0.632-1.134-1.512-2.007-2.642-2.616C123.498,1.939,122.342,1.632,121.162,1.632z M121.162,0.23c1.421,0,2.807,0.364,4.162,1.096
		c1.352,0.728,2.408,1.773,3.162,3.13c0.754,1.359,1.133,2.777,1.133,4.248c0,1.459-0.371,2.866-1.117,4.21
		c-0.743,1.349-1.784,2.394-3.128,3.138c-1.344,0.747-2.749,1.118-4.212,1.118c-1.466,0-2.871-0.372-4.215-1.118
		c-1.344-0.744-2.389-1.789-3.136-3.138c-0.746-1.344-1.121-2.75-1.121-4.21c0-1.471,0.379-2.888,1.137-4.248
		c0.762-1.356,1.818-2.402,3.17-3.13C118.353,0.594,119.738,0.23,121.162,0.23z M121.162,0c0.729,0,1.45,0.094,2.164,0.282
		c0.711,0.187,1.413,0.468,2.106,0.842c0.696,0.375,1.315,0.831,1.858,1.368c0.541,0.536,1.008,1.154,1.396,1.853
		c0.388,0.698,0.678,1.41,0.872,2.136c0.193,0.728,0.291,1.469,0.291,2.224c0,0.749-0.096,1.486-0.288,2.209
		c-0.19,0.719-0.478,1.423-0.858,2.111l0,0c-0.382,0.693-0.841,1.309-1.377,1.847c-0.537,0.539-1.151,0.999-1.842,1.381
		l-0.011,0.005c-0.685,0.379-1.386,0.664-2.101,0.854c-0.723,0.192-1.46,0.288-2.211,0.288s-1.488-0.096-2.212-0.287
		c-0.72-0.191-1.425-0.478-2.113-0.86v0c-0.692-0.383-1.307-0.843-1.844-1.381c-0.537-0.536-0.997-1.152-1.382-1.847
		c-0.383-0.689-0.671-1.395-0.862-2.115c-0.192-0.722-0.289-1.458-0.289-2.206c0-0.755,0.098-1.497,0.293-2.225
		c0.193-0.726,0.485-1.438,0.874-2.134V4.343l0,0c0.391-0.697,0.859-1.315,1.404-1.854c0.544-0.536,1.163-0.992,1.857-1.366
		c0.693-0.375,1.396-0.655,2.106-0.842C119.71,0.094,120.432,0,121.162,0z"/>
</g>
</svg>
